# xmcd CD database file
#
# Track frame offsets:
#	150
#	14625
#	27227
#	43325
#	60856
#	77209
#	94603
#	109273
#	123946
#	143371
#	156088
#	168661
#	182686
#	201036
#	213250
#	233057
#
# Disc length: 3416 seconds
#
# Revision: 0
# Processed by: cddbd v1.5.1PL0 Copyright (c) Steve Scherf et al.
# Submitted via: NeoAudio 9.9.9
#
DISCID=cf0d5610
DTITLE=Dave Sheriff - Singalongadance 3
DYEAR=1900
DGENRE=Country
TTITLE0=Do you wanna dance
TTITLE1=some broken hearts never mend
TTITLE2=don't fence me in
TTITLE3=my heart cries for you 
TTITLE4=ten guitars
TTITLE5=imagine
TTITLE6=diana
TTITLE7=till
TTITLE8=little ol wine drinker me
TTITLE9=the last waltz
TTITLE10=lonesome me
TTITLE11=hi ho silver lining
TTITLE12=who's sorry now
TTITLE13=glad all over
TTITLE14=maggie/l'll take you home again kathleen
TTITLE15=l ride a horse
EXTD=
EXTT0=
EXTT1=
EXTT2=
EXTT3=
EXTT4=
EXTT5=
EXTT6=
EXTT7=
EXTT8=
EXTT9=
EXTT10=
EXTT11=
EXTT12=
EXTT13=
EXTT14=
EXTT15=
PLAYORDER=
